<?xml version="1.0" standalone="no"?>
<!DOCTYPE svg PUBLIC "-//W3C//DTD SVG 20010904//EN"
 "http://www.w3.org/TR/2001/REC-SVG-20010904/DTD/svg10.dtd">
<svg version="1.0" xmlns="http://www.w3.org/2000/svg"
 width="1024.000000pt" height="1024.000000pt" viewBox="0 0 1024.000000 1024.000000"
 preserveAspectRatio="xMidYMid meet">

<g transform="translate(0.000000,1024.000000) scale(0.100000,-0.100000)"
stroke="none">
<path d="M4973 7600 c-502 -45 -989 -242 -1388 -560 -108 -86 -322 -295 -410
-402 -181 -215 -365 -543 -449 -798 -90 -273 -124 -482 -133 -805 -6 -242 6
-381 52 -611 133 -657 525 -1245 1076 -1616 248 -166 463 -267 754 -353 286
-84 390 -99 700 -100 294 0 373 9 630 75 240 62 358 105 560 205 411 204 741
502 1019 918 173 261 291 546 365 891 68 313 68 730 0 1059 -48 232 -158 535
-261 722 -383 690 -1042 1175 -1813 1334 -55 11 -136 25 -180 31 -113 15 -401
20 -522 10z m-183 -815 c12 -15 16 -91 5 -124 -4 -13 -49 -32 -146 -65 -171
-56 -268 -104 -419 -204 -140 -92 -345 -293 -430 -419 l-55 -82 -77 -1 -78 0
0 30 c0 37 67 139 174 267 189 227 439 410 710 520 113 45 256 91 292 92 6 1
17 -6 24 -14z m1010 -37 c123 -42 329 -145 448 -225 229 -152 559 -510 550
-597 l-3 -31 -72 -3 -72 -3 -57 78 c-176 240 -368 402 -638 538 -66 33 -167
76 -224 94 -116 38 -124 47 -115 122 10 80 24 82 183 27z m-480 -483 l0 -375
-105 0 -105 0 0 375 0 375 105 0 105 0 0 -375z m-867 -547 c67 -162 252 -627
325 -813 40 -102 73 -173 76 -165 3 8 26 78 50 155 24 77 72 226 106 330 35
105 83 254 108 333 l46 142 174 0 c162 0 174 -1 167 -17 -8 -17 -99 -285 -369
-1078 -70 -203 -143 -414 -163 -467 l-36 -98 -72 0 -71 0 -41 103 c-82 201
-215 544 -245 627 -16 47 -44 118 -60 159 -37 89 -26 103 -131 -164 -68 -174
-97 -249 -231 -595 l-45 -115 -77 -5 c-74 -5 -77 -4 -86 20 -33 82 -137 384
-334 968 l-223 662 174 0 c157 0 175 -2 175 -17 0 -9 18 -69 39 -132 21 -64
90 -275 152 -468 62 -194 116 -350 120 -345 4 4 44 104 89 222 46 118 135 341
198 495 63 154 119 297 125 318 6 20 14 37 17 37 3 0 23 -42 43 -92z m2148
-19 c120 -30 272 -104 340 -167 l57 -52 -115 -115 -114 -115 -61 42 c-97 65
-183 92 -303 92 -110 0 -173 -15 -261 -65 -172 -97 -267 -260 -266 -460 1
-198 95 -361 265 -458 145 -82 340 -86 488 -10 l37 19 4 75 3 75 -182 0 -183
0 0 160 0 160 108 1 c59 1 218 2 354 3 l248 1 0 -322 0 -322 -77 -57 c-337
-248 -778 -244 -1094 11 -113 92 -197 210 -250 356 -123 337 -52 679 191 919
121 119 301 212 460 239 104 17 260 13 351 -10z m-1283 -2046 l-3 -358 -102
-3 -103 -3 0 361 0 360 105 0 105 0 -2 -357z m-1363 141 c201 -218 459 -381
750 -474 39 -13 76 -27 83 -33 9 -7 12 -30 10 -71 l-3 -61 -37 -3 c-99 -8
-459 151 -638 283 -110 81 -316 280 -364 352 -23 34 -26 45 -16 62 9 18 20 21
78 21 l66 0 71 -76z m2698 54 c8 -12 6 -26 -9 -54 -28 -56 -296 -322 -384
-381 -196 -133 -529 -273 -627 -264 -17 1 -27 64 -16 108 9 38 9 38 128 80
280 99 519 256 702 461 l66 73 65 -3 c48 -2 68 -7 75 -20z"/>
</g>
</svg>
